# xmcd
#
# Track frame offsets:
#	150
#	11262
#	19347
#	33515
#	43475
#	53375
#	64772
#	75482
#	85190
#	95005
#	105330
#	119232
#	131007
#	144140
#	152532
#	164050
#	174202
#	186102
#	196202
#	207775
#	218820
#	226860
#	239572
#	251180
#	262392
#	272567
#
# Disc length: 3785 seconds
#
# Revision: 2
# Processed by: cddbd v1.5.1PL0 Copyright (c) Steve Scherf et al.
# Submitted via: audiograbber 1.83.01
#
DISCID=6c0ec71a
DTITLE=Lavern Baker - Blues side of rock 'n'roll
DYEAR=1900
DGENRE=
TTITLE0=Hey, Memphis 1961
TTITLE1=Voodoo voodoo 1958
TTITLE2=Tweedlee dee 1954
TTITLE3=Jim Danday 1955
TTITLE4=Tralala 1956
TTITLE5=St. Louis blues 1957
TTITLE6=Still 1956
TTITLE7=Jim Dandy got married 1957
TTITLE8=Whipper snapper 1957
TTITLE9=Substitute 1957
TTITLE10=Bop-ting-a-ling 1955
TTITLE11=Humpty dumpty heart 1957
TTITLE12=Saved 1960
TTITLE13=Dix-a-billy 1958
TTITLE14=That's all i need 1955
TTITLE15=He's a real gone guy 1968
TTITLE16=I can't love you enough 1956
TTITLE17=Itty bitty girl 1962
TTITLE18=Oh, Johnny oh, Johnny 1962
TTITLE19=See see rider 1962
TTITLE20=So high so low 1959
TTITLE21=Shake a hand 1959
TTITLE22=I cried a tear 1958
TTITLE23=Bumble bee 1960
TTITLE24=You said 1960
TTITLE25=I waited too long 1959
EXTD=
EXTT0=
EXTT1=
EXTT2=
EXTT3=
EXTT4=
EXTT5=
EXTT6=
EXTT7=
EXTT8=
EXTT9=
EXTT10=
EXTT11=
EXTT12=
EXTT13=
EXTT14=
EXTT15=
EXTT16=
EXTT17=
EXTT18=
EXTT19=
EXTT20=
EXTT21=
EXTT22=
EXTT23=
EXTT24=
EXTT25=
PLAYORDER=
